<svg xmlns="http://www.w3.org/2000/svg" version="1.1" xmlns:xlink="http://www.w3.org/1999/xlink" xmlns:svgjs="http://svgjs.dev/svgjs" width="1000" height="353" viewBox="0 0 1000 353"><g transform="matrix(1,0,0,1,-0.6060606060606233,0.06679680699650703)"><svg viewBox="0 0 396 140" data-background-color="#d9bca9" preserveAspectRatio="xMidYMid meet" height="353" width="1000" xmlns="http://www.w3.org/2000/svg" xmlns:xlink="http://www.w3.org/1999/xlink"><g id="tight-bounds" transform="matrix(1,0,0,1,0.2400000000000091,-0.026490476549980713)"><svg viewBox="0 0 395.52 140.0529820724154" height="140.0529820724154" width="395.52"><g><svg viewBox="0 0 397.4975999999999 140.75324698277745" height="140.0529820724154" width="395.52"><g><rect width="397.4975999999999" height="2.549494010151588" x="0" y="79.11338900000729" fill="#551e19" opacity="1" stroke-width="0" stroke="transparent" fill-opacity="1" class="rect-o-0" data-fill-palette-color="secondary" rx="1%" id="o-0" data-palette-color="#551e19"></rect></g><g transform="matrix(1,0,0,1,0.9887999999999693,88.33695109956095)"><svg viewBox="0 0 395.52 52.416295883216506" height="52.416295883216506" width="395.52"><g id="textblocktransform"><svg viewBox="0 0 395.52 52.416295883216506" height="52.416295883216506" width="395.52" id="textblock"><g><svg viewBox="0 0 395.52 28.270845360824747" height="28.270845360824747" width="395.52"><g transform="matrix(1,0,0,1,0,0)"><svg width="395.52" viewBox="0.800000011920929 -35.70000076293945 509.2200012207031 36.400001525878906" height="28.270845360824747" data-palette-color="#c56e33"><path d="M48.95-35L58.4-35 47.05 0 36.45 0 29.75-21.3 22.75 0 12.15 0 0.8-35 11-35 18.05-12.65 25.45-35 34.55-35 41.6-12.45 48.95-35ZM86.95 0L84.2-6.8 69.4-6.8 66.65 0 56.55 0 72-35 81.75-35 97.25 0 86.95 0ZM72.3-14.1L81.3-14.1 76.8-25.3 72.3-14.1ZM100.05 0L100.05-35 109.95-35 109.95-7.85 126.65-7.85 126.65 0 100.05 0ZM130.54 0L130.54-35 140.44-35 140.44-7.85 157.14-7.85 157.14 0 130.54 0ZM170.84-7.65L189.14-7.65 189.14 0 161.04 0 161.04-35 188.49-35 188.49-27.35 170.84-27.35 170.84-21.45 186.39-21.45 186.39-14.05 170.84-14.05 170.84-7.65ZM202.09 0L202.09-27.15 191.34-27.15 191.34-35 222.69-35 222.69-27.15 211.99-27.15 211.99 0 202.09 0ZM286.38-35L295.83-35 284.48 0 273.88 0 267.18-21.3 260.18 0 249.58 0 238.23-35 248.43-35 255.48-12.65 262.88-35 271.98-35 279.03-12.45 286.38-35ZM324.38 0L321.63-6.8 306.83-6.8 304.08 0 293.98 0 309.43-35 319.18-35 334.68 0 324.38 0ZM309.73-14.1L318.73-14.1 314.23-25.3 309.73-14.1ZM343.18 0L343.18-27.15 332.43-27.15 332.43-35 363.78-35 363.78-27.15 353.08-27.15 353.08 0 343.18 0ZM384.43 0.7Q378.93 0.7 374.55-1.63 370.18-3.95 367.68-8.1 365.18-12.25 365.18-17.5L365.18-17.5Q365.18-22.75 367.68-26.9 370.18-31.05 374.55-33.38 378.93-35.7 384.43-35.7L384.43-35.7Q389.23-35.7 393.08-34 396.93-32.3 399.48-29.1L399.48-29.1 393.18-23.4Q389.78-27.5 384.93-27.5L384.93-27.5Q382.08-27.5 379.85-26.25 377.63-25 376.4-22.73 375.18-20.45 375.18-17.5L375.18-17.5Q375.18-14.55 376.4-12.28 377.63-10 379.85-8.75 382.08-7.5 384.93-7.5L384.93-7.5Q389.78-7.5 393.18-11.6L393.18-11.6 399.48-5.9Q396.93-2.7 393.08-1 389.23 0.7 384.43 0.7L384.43 0.7ZM427.27-35L437.17-35 437.17 0 427.27 0 427.27-13.65 413.77-13.65 413.77 0 403.87 0 403.87-35 413.77-35 413.77-21.85 427.27-21.85 427.27-35ZM453.97-7.65L472.27-7.65 472.27 0 444.17 0 444.17-35 471.62-35 471.62-27.35 453.97-27.35 453.97-21.45 469.52-21.45 469.52-14.05 453.97-14.05 453.97-7.65ZM499.42 0L493.07-9.3 487.67-9.3 487.67 0 477.77 0 477.77-35 493.77-35Q498.52-35 502.02-33.43 505.52-31.85 507.42-28.93 509.32-26 509.32-22.05L509.32-22.05Q509.32-18.25 507.54-15.43 505.77-12.6 502.47-11L502.47-11 510.02 0 499.42 0ZM499.32-22.05Q499.32-24.5 497.77-25.85 496.22-27.2 493.17-27.2L493.17-27.2 487.67-27.2 487.67-16.95 493.17-16.95Q496.22-16.95 497.77-18.28 499.32-19.6 499.32-22.05L499.32-22.05Z" opacity="1" transform="matrix(1,0,0,1,0,0)" fill="#c56e33" class="wordmark-text-0" data-fill-palette-color="primary" id="text-0"></path></svg></g></svg></g><g transform="matrix(1,0,0,1,0,34.944913450226814)"><svg viewBox="0 0 395.52 17.471382432989692" height="17.471382432989692" width="395.52"><g transform="matrix(1,0,0,1,0,0)"><svg width="395.52" viewBox="2.690000057220459 -37.52000045776367 1079.4000244140625 47.68000030517578" height="17.471382432989692" data-palette-color="#551e19"><path d="M24.73-21.44L24.73-15.06 11.25-15.06 11.25-6.59 27.17-6.59 27.17 0 2.69 0 2.69-35.55 27.22-35.55 27.22-28.93 11.25-28.93 11.25-21.44 24.73-21.44ZM71-26.42L74.71-19.14 78.55-26.42 87.09-26.42 80.13-13.55 87.43 0 78.84 0 74.69-7.81 70.61 0 61.97 0 69.29-13.55 62.36-26.42 71-26.42ZM147.99-13.4L147.99-13.01Q147.99-6.86 145.21-3.19 142.44 0.49 137.73 0.49L137.73 0.49Q134.09 0.49 131.75-2.17L131.75-2.17 131.75 10.16 123.52 10.16 123.52-26.42 131.21-26.42 131.46-23.97Q133.83-26.9 137.68-26.9L137.68-26.9Q142.57-26.9 145.28-23.3 147.99-19.7 147.99-13.4L147.99-13.4ZM139.76-12.65L139.76-13.53Q139.76-20.56 135.66-20.56L135.66-20.56Q132.73-20.56 131.75-18.46L131.75-18.46 131.75-8.06Q132.82-5.86 135.71-5.86L135.71-5.86Q139.64-5.86 139.76-12.65L139.76-12.65ZM198.11 0.49L198.11 0.49Q192.03 0.49 188.27-3.14 184.51-6.76 184.51-12.57L184.51-12.57 184.51-13.26Q184.51-17.31 186.02-20.41 187.52-23.51 190.4-25.21 193.28-26.9 197.23-26.9L197.23-26.9Q202.8-26.9 206.02-23.45 209.25-20 209.25-13.82L209.25-13.82 209.25-10.62 192.89-10.62Q193.33-8.4 194.82-7.13 196.31-5.86 198.67-5.86L198.67-5.86Q202.58-5.86 204.78-8.59L204.78-8.59 208.54-4.15Q207-2.03 204.18-0.77 201.36 0.49 198.11 0.49ZM197.19-20.56L197.19-20.56Q193.57-20.56 192.89-15.77L192.89-15.77 201.19-15.77 201.19-16.41Q201.24-18.38 200.19-19.47 199.14-20.56 197.19-20.56ZM246.12-26.42L253.83-26.42 254.1-23.32Q256.84-26.9 261.64-26.9L261.64-26.9Q265.77-26.9 267.81-24.44 269.85-21.97 269.92-17.02L269.92-17.02 269.92 0 261.67 0 261.67-16.67Q261.67-18.68 260.86-19.62 260.06-20.56 257.93-20.56L257.93-20.56Q255.52-20.56 254.34-18.65L254.34-18.65 254.34 0 246.12 0 246.12-26.42ZM322.03-7.42L322.03-7.42Q322.03-8.47 320.93-9.11 319.83-9.74 316.75-10.42 313.68-11.11 311.67-12.22 309.67-13.33 308.62-14.92 307.57-16.5 307.57-18.55L307.57-18.55Q307.57-22.19 310.58-24.55 313.58-26.9 318.44-26.9L318.44-26.9Q323.66-26.9 326.84-24.54 330.01-22.17 330.01-18.31L330.01-18.31 321.76-18.31Q321.76-21.48 318.41-21.48L318.41-21.48Q317.12-21.48 316.24-20.76 315.36-20.04 315.36-18.97L315.36-18.97Q315.36-17.87 316.44-17.19 317.51-16.5 319.87-16.06 322.22-15.63 324-15.01L324-15.01Q329.96-12.96 329.96-7.67L329.96-7.67Q329.96-4.05 326.75-1.78 323.54 0.49 318.44 0.49L318.44 0.49Q315.04 0.49 312.38-0.73 309.72-1.95 308.23-4.05 306.74-6.15 306.74-8.47L306.74-8.47 314.43-8.47Q314.48-6.64 315.65-5.8 316.83-4.96 318.66-4.96L318.66-4.96Q320.34-4.96 321.18-5.64 322.03-6.32 322.03-7.42ZM380.31 0.49L380.31 0.49Q374.23 0.49 370.47-3.14 366.71-6.76 366.71-12.57L366.71-12.57 366.71-13.26Q366.71-17.31 368.21-20.41 369.71-23.51 372.59-25.21 375.47-26.9 379.43-26.9L379.43-26.9Q385-26.9 388.22-23.45 391.44-20 391.44-13.82L391.44-13.82 391.44-10.62 375.08-10.62Q375.52-8.4 377.01-7.13 378.5-5.86 380.87-5.86L380.87-5.86Q384.78-5.86 386.97-8.59L386.97-8.59 390.73-4.15Q389.2-2.03 386.38-0.77 383.56 0.49 380.31 0.49ZM379.38-20.56L379.38-20.56Q375.77-20.56 375.08-15.77L375.08-15.77 383.38-15.77 383.38-16.41Q383.43-18.38 382.38-19.47 381.33-20.56 379.38-20.56ZM501.46-35.55L501.46-28.93 490.79-28.93 490.79 0 482.22 0 482.22-28.93 471.75-28.93 471.75-35.55 501.46-35.55ZM552.96-26.61L552.81-18.97 550.1-19.17Q546.22-19.17 545.12-16.72L545.12-16.72 545.12 0 536.89 0 536.89-26.42 544.61-26.42 544.88-23.02Q546.95-26.9 550.66-26.9L550.66-26.9Q551.98-26.9 552.96-26.61L552.96-26.61ZM611.88 0L603.65 0Q603.21-0.81 602.87-2.37L602.87-2.37Q600.6 0.49 596.52 0.49L596.52 0.49Q592.78 0.49 590.17-1.77 587.56-4.03 587.56-7.45L587.56-7.45Q587.56-11.74 590.73-13.94 593.91-16.14 599.96-16.14L599.96-16.14 602.5-16.14 602.5-17.53Q602.5-21.17 599.35-21.17L599.35-21.17Q596.42-21.17 596.42-18.29L596.42-18.29 588.19-18.29Q588.19-22.12 591.45-24.51 594.71-26.9 599.77-26.9 604.82-26.9 607.75-24.44 610.68-21.97 610.75-17.68L610.75-17.68 610.75-5.98Q610.8-2.34 611.88-0.42L611.88-0.42 611.88 0ZM598.5-5.37L598.5-5.37Q600.03-5.37 601.05-6.03 602.06-6.69 602.5-7.52L602.5-7.52 602.5-11.74 600.11-11.74Q595.81-11.74 595.81-7.89L595.81-7.89Q595.81-6.76 596.57-6.07 597.32-5.37 598.5-5.37ZM660.2-5.86L660.2-5.86Q661.93-5.86 662.88-6.8 663.83-7.74 663.81-9.42L663.81-9.42 671.52-9.42Q671.52-5.08 668.41-2.29 665.3 0.49 660.39 0.49L660.39 0.49Q654.63 0.49 651.31-3.13 647.99-6.74 647.99-13.13L647.99-13.13 647.99-13.48Q647.99-17.48 649.47-20.54 650.94-23.61 653.73-25.26 656.51-26.9 660.32-26.9L660.32-26.9Q665.47-26.9 668.5-24.05 671.52-21.19 671.52-16.31L671.52-16.31 663.81-16.31Q663.81-18.36 662.81-19.46 661.81-20.56 660.12-20.56L660.12-20.56Q656.92-20.56 656.39-16.48L656.39-16.48Q656.22-15.19 656.22-12.92L656.22-12.92Q656.22-8.94 657.17-7.4 658.12-5.86 660.2-5.86ZM725.09 0L719.33-9.84 717.01-7.52 717.01 0 708.79 0 708.79-37.52 717.01-37.52 717.01-17.6 717.84-18.7 724.05-26.42 733.91-26.42 724.66-15.55 734.52 0 725.09 0ZM782.08 0.49L782.08 0.49Q776 0.49 772.24-3.14 768.48-6.76 768.48-12.57L768.48-12.57 768.48-13.26Q768.48-17.31 769.99-20.41 771.49-23.51 774.37-25.21 777.25-26.9 781.2-26.9L781.2-26.9Q786.77-26.9 789.99-23.45 793.22-20 793.22-13.82L793.22-13.82 793.22-10.62 776.86-10.62Q777.3-8.4 778.79-7.13 780.28-5.86 782.64-5.86L782.64-5.86Q786.55-5.86 788.75-8.59L788.75-8.59 792.51-4.15Q790.97-2.03 788.15-0.77 785.33 0.49 782.08 0.49ZM781.16-20.56L781.16-20.56Q777.54-20.56 776.86-15.77L776.86-15.77 785.16-15.77 785.16-16.41Q785.21-18.38 784.16-19.47 783.11-20.56 781.16-20.56ZM846.37-26.61L846.22-18.97 843.51-19.17Q839.63-19.17 838.53-16.72L838.53-16.72 838.53 0 830.31 0 830.31-26.42 838.02-26.42 838.29-23.02Q840.37-26.9 844.08-26.9L844.08-26.9Q845.39-26.9 846.37-26.61L846.37-26.61ZM951.73 0L949.65-6.64 937.91-6.64 935.86 0 926.71 0 939.74-35.55 947.8-35.55 960.93 0 951.73 0ZM943.77-25.59L939.96-13.26 947.6-13.26 943.77-25.59ZM1020.22-13.4L1020.22-13.01Q1020.22-6.86 1017.45-3.19 1014.68 0.49 1009.96 0.49L1009.96 0.49Q1006.33 0.49 1003.98-2.17L1003.98-2.17 1003.98 10.16 995.75 10.16 995.75-26.42 1003.44-26.42 1003.69-23.97Q1006.06-26.9 1009.91-26.9L1009.91-26.9Q1014.8-26.9 1017.51-23.3 1020.22-19.7 1020.22-13.4L1020.22-13.4ZM1011.99-12.65L1011.99-13.53Q1011.99-20.56 1007.89-20.56L1007.89-20.56Q1004.96-20.56 1003.98-18.46L1003.98-18.46 1003.98-8.06Q1005.06-5.86 1007.94-5.86L1007.94-5.86Q1011.87-5.86 1011.99-12.65L1011.99-12.65ZM1082.09-13.4L1082.09-13.01Q1082.09-6.86 1079.32-3.19 1076.55 0.49 1071.83 0.49L1071.83 0.49Q1068.2 0.49 1065.85-2.17L1065.85-2.17 1065.85 10.16 1057.63 10.16 1057.63-26.42 1065.32-26.42 1065.56-23.97Q1067.93-26.9 1071.79-26.9L1071.79-26.9Q1076.67-26.9 1079.38-23.3 1082.09-19.7 1082.09-13.4L1082.09-13.4ZM1073.86-12.65L1073.86-13.53Q1073.86-20.56 1069.76-20.56L1069.76-20.56Q1066.83-20.56 1065.85-18.46L1065.85-18.46 1065.85-8.06Q1066.93-5.86 1069.81-5.86L1069.81-5.86Q1073.74-5.86 1073.86-12.65L1073.86-12.65Z" opacity="1" transform="matrix(1,0,0,1,0,0)" fill="#551e19" class="slogan-text-1" data-fill-palette-color="secondary" id="text-1"></path></svg></g></svg></g></svg></g></svg></g><g transform="matrix(1,0,0,1,146.98579175412777,0)"><svg viewBox="0 0 103.52601649174434 72.43932091060522" height="72.43932091060522" width="103.52601649174434"><g><svg xmlns="http://www.w3.org/2000/svg" xmlns:xlink="http://www.w3.org/1999/xlink" version="1.1" x="8" y="0" viewBox="2.546999931335449 11.581001281738281 95.0060043334961 78.62999725341797" enable-background="new 0 0 100 100" xml:space="preserve" height="72.43932091060522" width="87.52601649174434" class="icon-icon-0" data-fill-palette-color="accent" id="icon-0"><g fill="#551e19" data-fill-palette-color="accent"><path d="M23.778 19.45c0-4.362-3.534-7.869-7.882-7.869s-7.881 3.507-7.881 7.869c0 4.347 3.534 7.882 7.881 7.882S23.778 23.797 23.778 19.45L23.778 19.45z" fill="#551e19" data-fill-palette-color="accent"></path></g><g fill="#551e19" data-fill-palette-color="accent"><path d="M2.547 57.337c0 2.535 2.054 4.601 4.601 4.614 0.013 0 0.013 23.658 0.013 23.658 0 2.546 2.054 4.602 4.588 4.602 2.547 0 4.614-2.056 4.614-4.602 0 2.546 2.054 4.602 4.588 4.602 2.547 0 4.614-2.056 4.614-4.602v-0.813c-7.975-9.215-7.975-22.898 0-32.112V42.161l4.841 6.228c2.146-1.453 4.521-2.548 7.027-3.268L27.072 31.812c-0.693-0.88-1.761-1.413-2.908-1.413h-4.814l-3.454 5-3.454-5H6.228c-2.026 0-3.681 1.651-3.681 3.681V57.337" fill="#551e19" data-fill-palette-color="accent"></path></g><g fill="#551e19" data-fill-palette-color="accent"><path d="M68.428 72.326h23.044c1.093 0 1.987 0.882 1.987 1.974v4.521c0 1.121-0.895 2.001-1.987 2.001H65.506C66.986 78.194 67.987 75.313 68.428 72.326z" fill="#551e19" data-fill-palette-color="accent"></path></g><g fill="#551e19" data-fill-palette-color="accent"><path d="M67.881 62.472h25.578c1.106 0 2 0.894 2 2.001v4.521c0 1.094-0.894 2.001-2 2.001H68.587C68.854 68.127 68.614 65.258 67.881 62.472z" fill="#551e19" data-fill-palette-color="accent"></path></g><g fill="#551e19" data-fill-palette-color="accent"><path d="M62.666 52.643h26.778c1.094 0 1.987 0.88 1.987 2.001v4.507c0 1.107-0.894 1.987-1.987 1.987H67.48C66.467 58.017 64.826 55.122 62.666 52.643z" fill="#551e19" data-fill-palette-color="accent"></path></g><g fill="#551e19" data-fill-palette-color="accent"><path d="M56.345 32.946h39.221c1.095 0 1.987 0.905 1.987 2.001v4.521c0 1.092-0.893 2-1.987 2H56.345c-1.094 0-1.987-0.908-1.987-2v-4.521C54.357 33.852 55.251 32.946 56.345 32.946z" fill="#551e19" data-fill-palette-color="accent"></path></g><g fill="#551e19" data-fill-palette-color="accent"><path d="M54.478 23.117h39.234c1.094 0 1.987 0.88 1.987 2v4.507c0 1.107-0.894 2.002-1.987 2.002H54.478c-1.094 0-1.987-0.895-1.987-2.002v-4.507C52.49 23.997 53.384 23.117 54.478 23.117z" fill="#551e19" data-fill-palette-color="accent"></path></g><g fill="#551e19" data-fill-palette-color="accent"><path d="M61.426 51.309c-4.041-4.001-9.336-6.494-15.003-7.026 0.227-0.867 1.027-1.482 1.934-1.482h39.221c1.107 0 2.001 0.881 2.001 1.987v4.534c0 1.094-0.894 1.987-2.001 1.987H61.426z" fill="#551e19" data-fill-palette-color="accent"></path></g><path d="M65.613 68.739c0 11.87-9.615 21.472-21.471 21.472-11.869 0-21.485-9.602-21.485-21.472 0-11.868 9.616-21.484 21.485-21.484C55.998 47.255 65.613 56.871 65.613 68.739L65.613 68.739zM51.544 59.338l2.307-4.587c-7.708-4.108-17.297-1.229-21.431 6.48-0.534 1.014-0.974 2.094-1.28 3.188h-3.521l-1.601 3.199h4.574c-0.053 0.706-0.053 1.428 0 2.12h-2.974l-1.601 3.201h5.121c2.333 8.416 11.042 13.337 19.471 11.002 1.12-0.318 2.214-0.749 3.24-1.294l-2.307-4.572c-0.308 0.172-0.614 0.318-0.934 0.45-5.428 2.35-11.723-0.172-14.069-5.586h8.161l1.614-3.201h-10.59c-0.079-0.692-0.066-1.414 0-2.12h11.656l1.601-3.199h-12.43c0.134-0.295 0.293-0.602 0.454-0.881C39.861 58.351 46.369 56.471 51.544 59.338z" fill="#551e19" data-fill-palette-color="accent"></path></svg></g></svg></g><g><rect width="70.45267175412782" height="2.549494010151588" y="68.88982690045363" x="250.51180824587212" fill="#551e19" data-fill-palette-color="secondary"></rect><rect width="70.45267175412782" height="2.549494010151588" y="68.88982690045363" x="76.53311999999997" fill="#551e19" data-fill-palette-color="secondary"></rect></g></svg></g><defs></defs></svg><rect width="395.52" height="140.0529820724154" fill="none" stroke="none" visibility="hidden"></rect></g></svg></g></svg>